<svg width="40" height="40" viewBox="0 0 40 40" fill="none" xmlns="http://www.w3.org/2000/svg">
<circle cx="20" cy="20" r="20" fill="white" fill-opacity="0.23"/>
<path d="M16.4943 28L18.6761 14.9091H21.7614L19.5795 28H16.4943ZM20.6705 13.0341C20.1761 13.0341 19.767 12.8693 19.4432 12.5398C19.1193 12.2102 18.9773 11.8153 19.017 11.3551C19.0568 10.8949 19.2642 10.5 19.6392 10.1705C20.0199 9.84091 20.4545 9.67614 20.9432 9.67614C21.4375 9.67614 21.8438 9.84091 22.1619 10.1705C22.4858 10.5 22.6278 10.8949 22.5881 11.3551C22.554 11.8153 22.3466 12.2102 21.9659 12.5398C21.5909 12.8693 21.1591 13.0341 20.6705 13.0341Z" fill="white"/>
</svg>
